HIERARCHY
ROOT joint_Root
{
	OFFSET 0.0 0.0 0.0
	CHANNELS 6 Xposition Yposition Zposition Zrotation Xrotation Yrotation 
	JOINT Hips
	{
		OFFSET 4.5925 91.4895 -427.239
		CHANNELS 6 Xposition Yposition Zposition Zrotation Xrotation Yrotation 
		JOINT Spine
		{
			OFFSET 15.7357 0.0 0.0
			CHANNELS 6 Xposition Yposition Zposition Zrotation Xrotation Yrotation 
			JOINT Chest
			{
				OFFSET 8.98455 -0.406207 0.0
				CHANNELS 6 Xposition Yposition Zposition Zrotation Xrotation Yrotation 
				JOINT Neck
				{
					OFFSET 16.3773 0.0 0.0
					CHANNELS 6 Xposition Yposition Zposition Zrotation Xrotation Yrotation 
					JOINT Head
					{
						OFFSET 6.45672 0.0 0.0
						CHANNELS 6 Xposition Yposition Zposition Zrotation Xrotation Yrotation 
						End Site
						{
							OFFSET 0.0 0.0 0.0
						}
					}
				}
				JOINT Shoulder_L
				{
					OFFSET 12.9942 -0.242716 4.98039
					CHANNELS 6 Xposition Yposition Zposition Zrotation Xrotation Yrotation 
					JOINT UpperArm_L
					{
						OFFSET 5.34809 0.0 0.0
						CHANNELS 6 Xposition Yposition Zposition Zrotation Xrotation Yrotation 
						JOINT LowerArm_L
						{
							OFFSET 24.3286 1.87007e-05 0.0
							CHANNELS 6 Xposition Yposition Zposition Zrotation Xrotation Yrotation 
							JOINT Hand_L
							{
								OFFSET 22.2916 0.0 0.0
								CHANNELS 6 Xposition Yposition Zposition Zrotation Xrotation Yrotation 
								End Site
								{
									OFFSET 0.0 0.0 0.0
								}
							}
						}
					}
				}
				JOINT Shoulder_R
				{
					OFFSET 12.9945 -0.242716 -4.98039
					CHANNELS 6 Xposition Yposition Zposition Zrotation Xrotation Yrotation 
					JOINT UpperArm_R
					{
						OFFSET -5.34813 0.0 0.0
						CHANNELS 6 Xposition Yposition Zposition Zrotation Xrotation Yrotation 
						JOINT LowerArm_R
						{
							OFFSET -24.3289 0.000322201 0.0
							CHANNELS 6 Xposition Yposition Zposition Zrotation Xrotation Yrotation 
							JOINT Hand_R
							{
								OFFSET -22.2915 -0.000108084 0.0
								CHANNELS 6 Xposition Yposition Zposition Zrotation Xrotation Yrotation 
								End Site
								{
									OFFSET 0.0 0.0 0.0
								}
							}
						}
					}
				}
			}
		}
		JOINT UpperLeg_L
		{
			OFFSET -2.19248 -6.46944 0.0
			CHANNELS 6 Xposition Yposition Zposition Zrotation Xrotation Yrotation 
			JOINT LowerLeg_L
			{
				OFFSET 39.0811 0.0 -1.23785e-05
				CHANNELS 6 Xposition Yposition Zposition Zrotation Xrotation Yrotation 
				JOINT Foot_L
				{
					OFFSET 40.9854 0.0 -1.26872e-05
					CHANNELS 6 Xposition Yposition Zposition Zrotation Xrotation Yrotation 
					JOINT Toes_L
					{
						OFFSET 11.7543 0.0 0.0
						CHANNELS 6 Xposition Yposition Zposition Zrotation Xrotation Yrotation 
						End Site
						{
							OFFSET 0.0 0.0 0.0
						}
					}
				}
			}
		}
		JOINT UpperLeg_R
		{
			OFFSET -2.19251 6.46944 0.0
			CHANNELS 6 Xposition Yposition Zposition Zrotation Xrotation Yrotation 
			JOINT LowerLeg_R
			{
				OFFSET -39.0811 -0.00228153 -0.0401928
				CHANNELS 6 Xposition Yposition Zposition Zrotation Xrotation Yrotation 
				JOINT Foot_R
				{
					OFFSET -40.9854 0.0 0.0
					CHANNELS 6 Xposition Yposition Zposition Zrotation Xrotation Yrotation 
					JOINT Toes_R
					{
						OFFSET -11.7543 0.0 0.0
						CHANNELS 6 Xposition Yposition Zposition Zrotation Xrotation Yrotation 
						End Site
						{
							OFFSET 0.0 0.0 0.0
						}
					}
				}
			}
		}
	}
}
MOTION
Frames:	5
Frame Time:	0.0333333
0.000000 0.000000 0.000000 0.000000 0.000000 -0.000000 -0.629239 81.906800 -5.434300 88.963600 -3.436540 2.971100 15.735700 0.000005 -0.000001 88.928800 79.610800 -89.119300 8.984550 -0.406207 -0.000000 13.008300 -0.393235 -0.336306 16.377300 -0.000001 -0.000001 -6.117090 -1.333440 0.312057 6.456720 -0.000001 -0.000000 -13.970500 -0.731343 2.173210 12.994200 -0.242716 4.980390 -90.322000 0.986496 -71.924700 5.348090 -0.000007 -0.000001 -68.789400 16.557300 -6.213190 24.328600 0.000019 0.000005 7.965250 38.204600 -12.747400 22.291600 -0.000001 0.000005 -4.093810 5.316210 -0.397295 12.994500 -0.242716 -4.980390 88.445800 7.983600 -78.946100 -5.348130 -0.000001 -0.000004 -64.216700 22.051300 -6.104320 -24.328900 0.000322 -0.000009 0.842395 10.686100 -4.573680 -22.291500 -0.000108 -0.000004 -10.333900 5.255620 1.552030 -2.192480 -6.469440 -0.000000 -176.356000 -8.283560 -28.142200 39.081100 -0.000007 -0.000012 -0.620039 0.303091 63.950800 40.985400 -0.000006 -0.000013 -1.439580 -0.522265 -82.831900 11.754300 -0.000000 0.000003 -0.000359 -0.003019 -16.689300 -2.192510 6.469440 -0.000001 -179.786000 10.220100 152.906000 -39.081100 -0.002282 -0.040193 0.089462 -0.042436 63.811900 -40.985400 0.000008 0.000006 6.571340 0.828561 -83.866100 -11.754300 -0.000006 -0.000006 -0.536236 -0.659057 -16.641200
0.000000 0.000000 0.000000 0.000000 0.000000 -0.000000 -0.692228 83.290400 -4.347120 88.986600 -3.009310 3.502490 15.735700 0.000005 -0.000001 89.151600 80.529500 -89.298700 8.984550 -0.406207 -0.000000 11.172500 -0.282682 -0.266484 16.377300 -0.000001 -0.000001 -5.553460 -1.424210 0.439940 6.456720 -0.000001 -0.000000 -12.955600 -0.898839 2.136490 12.994200 -0.242716 4.980390 -89.982300 -0.052888 -71.534000 5.348090 -0.000007 -0.000001 -63.807200 6.804740 -9.654940 24.328600 0.000019 0.000005 5.232570 29.066600 -10.677500 22.291600 -0.000001 0.000005 -6.775350 5.324660 -0.620310 12.994500 -0.242716 -4.980390 88.781200 5.963150 -78.423800 -5.348130 -0.000001 -0.000004 -60.949700 8.311140 -9.505960 -24.328900 0.000322 -0.000009 -0.001591 13.796700 0.000059 -22.291500 -0.000108 -0.000004 -20.175000 5.039000 6.501980 -2.192480 -6.469440 -0.000000 -176.213000 -8.053960 -24.727500 39.081100 -0.000007 -0.000012 -0.581767 0.336043 59.989600 40.985400 -0.000006 -0.000013 -1.400020 -0.263904 -81.755200 11.754300 -0.000000 0.000003 -0.000375 -0.003135 -16.693400 -2.192510 6.469440 -0.000001 179.867000 10.815700 156.360000 -39.081100 -0.002282 -0.040193 0.083568 -0.046596 59.895300 -40.985400 0.000008 0.000006 6.494800 1.252590 -82.660000 -11.754300 -0.000006 -0.000006 -0.654995 -0.806941 -16.756500
0.000000 0.000000 0.000000 0.000000 0.000000 -0.000000 -0.666417 85.488100 -3.107840 89.164700 -2.713450 3.896190 15.735700 0.000005 -0.000001 89.219400 81.851100 -89.417000 8.984550 -0.406207 -0.000000 8.530000 -0.222288 -0.378354 16.377300 -0.000001 -0.000001 -4.179260 -1.743120 0.814772 6.456720 -0.000001 -0.000000 -11.151000 -1.191860 2.009460 12.994200 -0.242716 4.980390 -89.451000 -1.624290 -71.325400 5.348090 -0.000007 -0.000001 -56.267900 0.384562 -14.359600 24.328600 0.000019 0.000005 5.194800 24.708200 -12.269400 22.291600 -0.000001 0.000005 -0.855041 5.329750 -0.781146 12.994500 -0.242716 -4.980390 89.239400 3.524000 -77.809900 -5.348130 -0.000001 -0.000004 -55.127500 -1.216950 -14.456900 -24.328900 0.000322 -0.000009 -0.000710 12.397400 0.000052 -22.291500 -0.000108 -0.000004 -18.961100 5.088150 5.423060 -2.192480 -6.469440 -0.000000 -176.326000 -8.078480 -19.920800 39.081100 -0.000007 -0.000012 -0.479457 0.359734 53.120400 40.985400 -0.000006 -0.000013 -1.256950 0.052091 -79.310000 11.754300 -0.000000 0.000003 -0.000327 -0.002792 -16.681300 -2.192510 6.469440 -0.000001 179.241000 11.583500 161.077000 -39.081100 -0.002282 -0.040193 0.071406 -0.050897 53.254700 -40.985400 0.000008 0.000006 6.375300 2.219480 -79.983300 -11.754300 -0.000006 -0.000006 -0.717639 -0.882383 -17.087600
0.000000 0.000000 0.000000 0.000000 0.000000 -0.000000 -0.579566 87.784400 -1.639310 89.319100 -2.202240 5.137120 15.735700 0.000005 -0.000001 88.046200 82.959700 -88.261100 8.984550 -0.406207 -0.000000 6.305730 -0.475952 -0.403140 16.377300 -0.000001 -0.000001 -1.961050 -2.046490 0.909643 6.456720 -0.000001 -0.000000 -9.114320 -1.384100 1.950360 12.994200 -0.242716 4.980390 -88.882300 -3.259750 -71.061800 5.348090 -0.000007 -0.000001 -47.505000 -7.092040 -21.564900 24.328600 0.000019 0.000005 6.968510 29.456600 -13.956500 22.291600 -0.000001 0.000005 2.752270 5.348300 -1.326220 12.994500 -0.242716 -4.980390 89.671400 1.423460 -76.993700 -5.348130 -0.000001 -0.000004 -48.167000 -10.588900 -22.127200 -24.328900 0.000322 -0.000009 -0.001162 12.020500 0.000050 -22.291500 -0.000108 -0.000004 -12.139800 5.204410 2.657670 -2.192480 -6.469440 -0.000000 -176.260000 -8.257890 -13.367000 39.081100 -0.000007 -0.000012 -0.370297 0.372815 44.806600 40.985400 -0.000006 -0.000013 -0.976290 0.754698 -76.308600 11.754300 -0.000000 0.000003 -0.000253 -0.002257 -16.662100 -2.192510 6.469440 -0.000001 178.148000 13.323800 167.544000 -39.081100 -0.002282 -0.040193 0.057004 -0.053185 45.297600 -40.985400 0.000008 0.000006 6.342160 4.077830 -76.703400 -11.754300 -0.000006 -0.000006 -0.778943 -0.952544 -17.602600
0.000000 0.000000 0.000000 0.000000 0.000000 -0.000000 -0.498163 89.525300 -0.566770 89.559700 -2.310340 5.007690 15.735700 0.000005 -0.000001 86.984700 84.381200 -87.242200 8.984550 -0.406207 -0.000000 3.454840 -0.580740 -0.497019 16.377300 -0.000001 -0.000001 0.545455 -2.297490 1.025070 6.456720 -0.000001 -0.000000 -6.942610 -1.389700 1.838730 12.994200 -0.242716 4.980390 -88.366400 -4.854970 -71.375600 5.348090 -0.000007 -0.000001 -41.432100 -20.663400 -29.682100 24.328600 0.000019 0.000005 8.904210 28.964600 -17.935900 22.291600 -0.000001 0.000005 2.747460 5.326810 -0.698029 12.994500 -0.242716 -4.980390 90.137500 -0.594186 -76.950000 -5.348130 -0.000001 -0.000004 -43.203400 -22.075800 -31.673500 -24.328900 0.000322 -0.000009 0.109251 10.050500 -0.658585 -22.291500 -0.000108 -0.000004 -2.910730 5.254300 1.384300 -2.192480 -6.469440 -0.000000 -176.336000 -9.506920 -8.850410 39.081100 -0.000007 -0.000012 -0.273124 0.359125 37.254500 40.985400 -0.000006 -0.000013 -0.656102 1.850290 -73.359200 11.754300 -0.000000 0.000003 -0.000173 -0.001638 -16.639600 -2.192510 6.469440 -0.000001 177.342000 14.701700 171.673000 -39.081100 -0.002282 -0.040193 0.041259 -0.047976 38.364100 -40.985400 0.000008 0.000006 6.215840 6.123280 -73.561600 -11.754300 -0.000006 -0.000006 -0.861732 -1.047130 -18.057700
